G75*
%MOIN*%
%OFA0B0*%
%FSLAX25Y25*%
%IPPOS*%
%LPD*%
%AMOC8*
5,1,8,0,0,1.08239X$1,22.5*
%
%ADD10C,0.10800*%
%ADD11R,0.05524X0.05524*%
%ADD12C,0.06800*%
%ADD13C,0.08600*%
%ADD14C,0.08800*%
%ADD15R,0.05918X0.07099*%
%ADD16R,0.07099X0.05918*%
%ADD17R,0.09400X0.09400*%
%ADD18R,0.05950X0.05950*%
%ADD19C,0.06400*%
%ADD20C,0.06000*%
%ADD21R,0.05600X0.09600*%
%ADD22R,0.14973X0.09461*%
%ADD23R,0.06706X0.05918*%
%ADD24C,0.05550*%
%ADD25C,0.04762*%
D10*
X0065925Y0035138D03*
X0084021Y0017043D03*
X0188717Y0017991D03*
X0206812Y0036087D03*
D11*
X0201729Y0102850D03*
X0193461Y0102850D03*
D12*
X0079666Y0172421D03*
X0072595Y0165350D03*
X0065524Y0158279D03*
D13*
X0068695Y0070250D02*
X0076495Y0070250D01*
X0076495Y0050450D02*
X0068695Y0050450D01*
X0198695Y0055450D02*
X0206495Y0055450D01*
X0206495Y0075250D02*
X0198695Y0075250D01*
X0198695Y0120450D02*
X0206495Y0120450D01*
X0206495Y0140250D02*
X0198695Y0140250D01*
D14*
X0175312Y0151846D03*
X0175312Y0171846D03*
X0175312Y0111846D03*
X0175312Y0101846D03*
D15*
X0193855Y0092850D03*
X0201335Y0092850D03*
D16*
X0182595Y0069090D03*
X0182595Y0061610D03*
X0172595Y0061610D03*
X0172595Y0069090D03*
D17*
X0128973Y0168618D03*
X0118973Y0168618D03*
X0108973Y0168618D03*
X0098973Y0168618D03*
D18*
X0117753Y0133224D03*
X0137438Y0133224D03*
X0157910Y0017476D03*
X0097280Y0017476D03*
D19*
X0064895Y0095350D02*
X0059295Y0095350D01*
X0070295Y0115350D02*
X0075895Y0115350D01*
D20*
X0079995Y0125350D02*
X0085195Y0125350D01*
X0085195Y0085350D02*
X0079995Y0085350D01*
D21*
X0143495Y0148150D03*
X0152595Y0148150D03*
X0161695Y0148150D03*
D22*
X0152595Y0172551D03*
D23*
X0172595Y0086590D03*
X0172595Y0079110D03*
X0182595Y0079110D03*
X0182595Y0086590D03*
D24*
X0167595Y0092850D03*
X0147595Y0102850D03*
X0142595Y0085350D03*
X0125095Y0109100D03*
X0115095Y0090350D03*
X0107595Y0122850D03*
X0097595Y0145350D03*
X0132595Y0147850D03*
X0162595Y0157850D03*
X0175095Y0142850D03*
X0162595Y0119100D03*
X0202595Y0167850D03*
D25*
X0132595Y0072850D03*
X0172595Y0027850D03*
X0192595Y0046600D03*
M02*
