G75*
%MOIN*%
%OFA0B0*%
%FSLAX25Y25*%
%IPPOS*%
%LPD*%
%AMOC8*
5,1,8,0,0,1.08239X$1,22.5*
%
%ADD10R,0.07099X0.05918*%
%ADD11C,0.10800*%
%ADD12C,0.06800*%
%ADD13C,0.08600*%
%ADD14R,0.05918X0.07099*%
%ADD15C,0.08800*%
%ADD16R,0.08674X0.05524*%
%ADD17R,0.06706X0.05918*%
%ADD18R,0.09400X0.09400*%
%ADD19R,0.05918X0.06706*%
%ADD20R,0.05950X0.05950*%
%ADD21C,0.06400*%
%ADD22C,0.06000*%
%ADD23R,0.04737X0.06312*%
%ADD24R,0.14580X0.07099*%
%ADD25C,0.05550*%
%ADD26C,0.04762*%
D10*
X0085040Y0107011D03*
X0085040Y0114492D03*
X0175205Y0127283D03*
X0175205Y0134763D03*
D11*
X0065925Y0035138D03*
X0084021Y0017043D03*
X0188717Y0017991D03*
X0206812Y0036087D03*
D12*
X0079666Y0172421D03*
X0072595Y0165350D03*
X0065524Y0158279D03*
D13*
X0068695Y0070250D02*
X0076495Y0070250D01*
X0076495Y0050450D02*
X0068695Y0050450D01*
X0198695Y0055450D02*
X0206495Y0055450D01*
X0206495Y0075250D02*
X0198695Y0075250D01*
X0198695Y0120450D02*
X0206495Y0120450D01*
X0206495Y0140250D02*
X0198695Y0140250D01*
D14*
X0126335Y0155015D03*
X0118855Y0155015D03*
X0088077Y0096590D03*
X0080597Y0096590D03*
X0108855Y0017850D03*
X0116335Y0017850D03*
D15*
X0175312Y0101846D03*
X0175312Y0111846D03*
X0175312Y0151846D03*
X0175312Y0171846D03*
D16*
X0157123Y0112752D03*
X0157123Y0104878D03*
X0157123Y0097004D03*
X0157123Y0089130D03*
X0157123Y0081255D03*
X0157123Y0073381D03*
X0157123Y0065507D03*
X0157123Y0057633D03*
X0098068Y0057633D03*
X0098068Y0065507D03*
X0098068Y0073381D03*
X0098068Y0081255D03*
X0098068Y0089130D03*
X0098068Y0097004D03*
X0098068Y0104878D03*
X0098068Y0112752D03*
D17*
X0162595Y0127004D03*
X0162595Y0133696D03*
D18*
X0128973Y0168618D03*
X0118973Y0168618D03*
X0108973Y0168618D03*
X0098973Y0168618D03*
D19*
X0139249Y0017850D03*
X0145942Y0017850D03*
D20*
X0157910Y0017476D03*
X0097280Y0017476D03*
X0117753Y0133224D03*
X0137438Y0133224D03*
D21*
X0075895Y0115350D02*
X0070295Y0115350D01*
X0064895Y0095350D02*
X0059295Y0095350D01*
D22*
X0079995Y0085350D02*
X0085195Y0085350D01*
X0085195Y0125350D02*
X0079995Y0125350D01*
D23*
X0123855Y0123519D03*
X0127595Y0132181D03*
X0131335Y0123519D03*
D24*
X0166965Y0037850D03*
X0188225Y0037850D03*
D25*
X0142595Y0085350D03*
X0147595Y0102850D03*
X0162595Y0119100D03*
X0175095Y0142850D03*
X0162595Y0157850D03*
X0132595Y0147850D03*
X0107595Y0122850D03*
X0125095Y0109100D03*
X0115095Y0090350D03*
X0167595Y0092850D03*
X0202595Y0167850D03*
X0097595Y0145350D03*
D26*
X0132595Y0072850D03*
X0172595Y0027850D03*
X0192595Y0046600D03*
M02*
