G75*
%MOIN*%
%OFA0B0*%
%FSLAX25Y25*%
%IPPOS*%
%LPD*%
%AMOC8*
5,1,8,0,0,1.08239X$1,22.5*
%
%ADD10R,0.06299X0.05118*%
%ADD11C,0.10000*%
%ADD12C,0.06000*%
%ADD13C,0.07800*%
%ADD14R,0.05118X0.06299*%
%ADD15C,0.08000*%
%ADD16R,0.07874X0.04724*%
%ADD17R,0.05906X0.05118*%
%ADD18R,0.08600X0.08600*%
%ADD19R,0.05118X0.05906*%
%ADD20R,0.05150X0.05150*%
%ADD21C,0.05600*%
%ADD22C,0.05200*%
%ADD23R,0.03937X0.05512*%
%ADD24R,0.13780X0.06299*%
%ADD25C,0.04200*%
%ADD26C,0.04750*%
%ADD27C,0.03200*%
%ADD28C,0.03962*%
%ADD29C,0.04000*%
D10*
X0085040Y0107011D03*
X0085040Y0114492D03*
X0175205Y0127283D03*
X0175205Y0134763D03*
D11*
X0206812Y0036087D03*
X0188717Y0017991D03*
X0084021Y0017043D03*
X0065925Y0035138D03*
D12*
X0065524Y0158279D03*
X0072595Y0165350D03*
X0079666Y0172421D03*
D13*
X0076495Y0070250D02*
X0068695Y0070250D01*
X0068695Y0050450D02*
X0076495Y0050450D01*
X0198695Y0055450D02*
X0206495Y0055450D01*
X0206495Y0075250D02*
X0198695Y0075250D01*
X0198695Y0120450D02*
X0206495Y0120450D01*
X0206495Y0140250D02*
X0198695Y0140250D01*
D14*
X0126335Y0155015D03*
X0118855Y0155015D03*
X0088077Y0096590D03*
X0080597Y0096590D03*
X0108855Y0017850D03*
X0116335Y0017850D03*
D15*
X0175312Y0101846D03*
X0175312Y0111846D03*
X0175312Y0151846D03*
X0175312Y0171846D03*
D16*
X0157123Y0112752D03*
X0157123Y0104878D03*
X0157123Y0097004D03*
X0157123Y0089130D03*
X0157123Y0081255D03*
X0157123Y0073381D03*
X0157123Y0065507D03*
X0157123Y0057633D03*
X0098068Y0057633D03*
X0098068Y0065507D03*
X0098068Y0073381D03*
X0098068Y0081255D03*
X0098068Y0089130D03*
X0098068Y0097004D03*
X0098068Y0104878D03*
X0098068Y0112752D03*
D17*
X0162595Y0127004D03*
X0162595Y0133696D03*
D18*
X0128973Y0168618D03*
X0118973Y0168618D03*
X0108973Y0168618D03*
X0098973Y0168618D03*
D19*
X0139249Y0017850D03*
X0145942Y0017850D03*
D20*
X0157910Y0017476D03*
X0097280Y0017476D03*
X0117753Y0133224D03*
X0137438Y0133224D03*
D21*
X0075895Y0115350D02*
X0070295Y0115350D01*
X0064895Y0095350D02*
X0059295Y0095350D01*
D22*
X0079995Y0085350D02*
X0085195Y0085350D01*
X0085195Y0125350D02*
X0079995Y0125350D01*
D23*
X0123855Y0123519D03*
X0127595Y0132181D03*
X0131335Y0123519D03*
D24*
X0166965Y0037850D03*
X0188225Y0037850D03*
D25*
X0060095Y0040968D02*
X0060095Y0057850D01*
X0062595Y0060350D01*
X0087595Y0060350D01*
X0090312Y0057633D01*
X0098068Y0057633D01*
X0107595Y0067850D02*
X0102064Y0073381D01*
X0098068Y0073381D01*
X0098068Y0081255D02*
X0095095Y0081600D01*
X0087595Y0077850D01*
X0077595Y0077850D01*
X0072595Y0082850D01*
X0072595Y0097850D01*
X0067595Y0102850D01*
X0062595Y0102850D01*
X0057595Y0107850D01*
X0057595Y0137850D01*
X0077595Y0157850D01*
X0118973Y0157850D01*
X0118973Y0155133D01*
X0118855Y0155015D01*
X0118973Y0157850D02*
X0118973Y0168618D01*
X0128973Y0168618D02*
X0128973Y0157653D01*
X0126335Y0155015D01*
X0159760Y0155015D01*
X0162595Y0157850D01*
X0167595Y0162850D02*
X0177595Y0162850D01*
X0182595Y0157850D01*
X0182595Y0067850D01*
X0172595Y0057850D01*
X0157339Y0057850D01*
X0157123Y0057633D01*
X0156906Y0057850D01*
X0157123Y0065507D02*
X0145253Y0065507D01*
X0142595Y0062850D01*
X0142595Y0057850D01*
X0148845Y0051600D01*
X0176345Y0051600D01*
X0188845Y0064100D01*
X0188845Y0171600D01*
X0177595Y0182850D01*
X0090095Y0182850D01*
X0079666Y0172421D01*
X0087595Y0172850D02*
X0087595Y0167850D01*
X0085095Y0165350D01*
X0072595Y0165350D01*
X0081345Y0151600D02*
X0101345Y0151600D01*
X0107595Y0145350D01*
X0107595Y0132850D01*
X0117595Y0122850D01*
X0117595Y0107850D01*
X0122595Y0102850D01*
X0127595Y0102850D01*
X0131335Y0106590D01*
X0131335Y0123519D01*
X0127595Y0132181D02*
X0127595Y0137850D01*
X0131345Y0141600D01*
X0143845Y0141600D01*
X0147595Y0137850D01*
X0147595Y0102850D01*
X0157123Y0104878D02*
X0157123Y0112752D01*
X0157123Y0113628D01*
X0162595Y0119100D01*
X0162595Y0127004D01*
X0160095Y0125350D01*
X0157595Y0125350D01*
X0155095Y0127850D01*
X0155095Y0142850D01*
X0150095Y0147850D01*
X0132595Y0147850D01*
X0123855Y0123519D02*
X0123855Y0110360D01*
X0125095Y0109100D01*
X0107595Y0117850D02*
X0102595Y0112850D01*
X0098166Y0112850D01*
X0107595Y0117850D02*
X0107595Y0122850D01*
X0097595Y0127047D02*
X0097595Y0145350D01*
X0081345Y0151600D02*
X0062595Y0132850D01*
X0062595Y0112850D01*
X0067595Y0107850D01*
X0077595Y0107850D01*
X0080597Y0104848D01*
X0080597Y0096590D01*
X0088077Y0096590D02*
X0088491Y0097004D01*
X0098068Y0097004D01*
X0098068Y0089130D02*
X0113875Y0089130D01*
X0115095Y0090350D01*
X0107595Y0067850D02*
X0107595Y0019110D01*
X0108855Y0017850D01*
X0116335Y0017850D02*
X0139249Y0017850D01*
X0139249Y0029504D01*
X0156345Y0046600D01*
X0181345Y0046600D01*
X0190195Y0055450D01*
X0202595Y0055450D01*
X0210195Y0055450D01*
X0213845Y0059100D01*
X0213845Y0156600D01*
X0202595Y0167850D01*
X0175095Y0142850D02*
X0175205Y0140240D01*
X0175205Y0134763D01*
X0174138Y0133696D01*
X0162595Y0133696D01*
X0175205Y0127283D02*
X0175205Y0111952D01*
X0175312Y0111846D01*
X0167595Y0102850D02*
X0165568Y0104878D01*
X0157123Y0104878D01*
X0167595Y0102850D02*
X0167595Y0092850D01*
X0157123Y0089130D02*
X0146375Y0089130D01*
X0142595Y0085350D01*
X0097595Y0127047D02*
X0085040Y0114492D01*
X0084201Y0107850D02*
X0077595Y0107850D01*
X0084201Y0107850D02*
X0085040Y0107011D01*
X0087595Y0172850D02*
X0092595Y0177850D01*
X0152595Y0177850D01*
X0167595Y0162850D01*
X0060095Y0040968D02*
X0065925Y0035138D01*
X0145942Y0017850D02*
X0146316Y0017476D01*
X0157910Y0017476D01*
D26*
X0142595Y0085350D03*
X0147595Y0102850D03*
X0162595Y0119100D03*
X0175095Y0142850D03*
X0162595Y0157850D03*
X0132595Y0147850D03*
X0107595Y0122850D03*
X0125095Y0109100D03*
X0115095Y0090350D03*
X0167595Y0092850D03*
X0202595Y0167850D03*
X0097595Y0145350D03*
D27*
X0098818Y0145500D02*
X0101495Y0142823D01*
X0101495Y0131637D01*
X0102424Y0129395D01*
X0103774Y0128044D01*
X0102191Y0126461D01*
X0101220Y0124118D01*
X0101220Y0121582D01*
X0101495Y0120919D01*
X0101495Y0120377D01*
X0100232Y0119114D01*
X0093335Y0119114D01*
X0091865Y0118505D01*
X0090769Y0117409D01*
X0090690Y0117809D01*
X0090494Y0118282D01*
X0090209Y0118708D01*
X0089847Y0119070D01*
X0089421Y0119355D01*
X0088948Y0119551D01*
X0088606Y0119619D01*
X0088934Y0119755D01*
X0090790Y0121611D01*
X0091795Y0124037D01*
X0091795Y0126663D01*
X0090790Y0129089D01*
X0088934Y0130945D01*
X0086508Y0131950D01*
X0078682Y0131950D01*
X0076257Y0130945D01*
X0074400Y0129089D01*
X0073395Y0126663D01*
X0073395Y0124037D01*
X0074177Y0122150D01*
X0068943Y0122150D01*
X0068695Y0122047D01*
X0068695Y0130323D01*
X0083872Y0145500D01*
X0098818Y0145500D01*
X0100734Y0143584D02*
X0081956Y0143584D01*
X0078758Y0140386D02*
X0101495Y0140386D01*
X0101495Y0137187D02*
X0075559Y0137187D01*
X0072361Y0133989D02*
X0101495Y0133989D01*
X0101846Y0130790D02*
X0089088Y0130790D01*
X0091410Y0127592D02*
X0103322Y0127592D01*
X0101334Y0124393D02*
X0091795Y0124393D01*
X0090374Y0121195D02*
X0101381Y0121195D01*
X0098166Y0112850D02*
X0098068Y0112752D01*
X0091356Y0117996D02*
X0090612Y0117996D01*
X0076102Y0130790D02*
X0069162Y0130790D01*
X0068695Y0127592D02*
X0073780Y0127592D01*
X0073395Y0124393D02*
X0068695Y0124393D01*
X0056703Y0145584D02*
X0056722Y0146067D01*
X0057728Y0152421D01*
X0059716Y0158540D01*
X0059977Y0159051D01*
X0059924Y0158720D01*
X0059924Y0157838D01*
X0060062Y0156968D01*
X0060334Y0156129D01*
X0060735Y0155344D01*
X0061253Y0154631D01*
X0061564Y0154319D01*
X0065524Y0158279D01*
X0065524Y0158279D01*
X0061564Y0154319D01*
X0061876Y0154007D01*
X0062589Y0153489D01*
X0063374Y0153089D01*
X0064003Y0152885D01*
X0056703Y0145584D01*
X0056835Y0146783D02*
X0057901Y0146783D01*
X0057342Y0149982D02*
X0061100Y0149982D01*
X0063196Y0153180D02*
X0057974Y0153180D01*
X0059014Y0156379D02*
X0060253Y0156379D01*
X0063624Y0156379D02*
X0063624Y0156379D01*
X0109822Y0151750D02*
X0112296Y0151750D01*
X0112296Y0151070D01*
X0112905Y0149600D01*
X0114030Y0148475D01*
X0115500Y0147866D01*
X0122210Y0147866D01*
X0122595Y0148025D01*
X0122981Y0147866D01*
X0129690Y0147866D01*
X0131160Y0148475D01*
X0131601Y0148915D01*
X0160974Y0148915D01*
X0163216Y0149844D01*
X0165543Y0152171D01*
X0166206Y0152446D01*
X0167392Y0153632D01*
X0167312Y0153437D01*
X0167312Y0150255D01*
X0168530Y0147314D01*
X0169601Y0146243D01*
X0168720Y0144118D01*
X0168720Y0141582D01*
X0169080Y0140714D01*
X0169105Y0140111D01*
X0169105Y0140029D01*
X0168873Y0139796D01*
X0167452Y0139796D01*
X0166344Y0140255D01*
X0158847Y0140255D01*
X0157377Y0139647D01*
X0156251Y0138521D01*
X0155642Y0137051D01*
X0155642Y0130342D01*
X0156251Y0128872D01*
X0157042Y0128081D01*
X0157042Y0127004D01*
X0162595Y0127004D01*
X0162595Y0127003D01*
X0162595Y0127003D01*
X0162595Y0121844D01*
X0159386Y0121844D01*
X0158884Y0121944D01*
X0158411Y0122140D01*
X0157985Y0122425D01*
X0157623Y0122787D01*
X0157338Y0123213D01*
X0157142Y0123686D01*
X0157042Y0124188D01*
X0157042Y0127003D01*
X0162595Y0127003D01*
X0162595Y0121844D01*
X0165804Y0121844D01*
X0166306Y0121944D01*
X0166779Y0122140D01*
X0167205Y0122425D01*
X0167567Y0122787D01*
X0167852Y0123213D01*
X0168048Y0123686D01*
X0168083Y0123862D01*
X0168665Y0122458D01*
X0169105Y0122018D01*
X0169105Y0116953D01*
X0168530Y0116378D01*
X0167312Y0113437D01*
X0167312Y0110255D01*
X0168530Y0107314D01*
X0168998Y0106846D01*
X0168530Y0106378D01*
X0167312Y0103437D01*
X0167312Y0100255D01*
X0168530Y0097314D01*
X0170780Y0095064D01*
X0173720Y0093846D01*
X0176495Y0093846D01*
X0176495Y0070377D01*
X0170068Y0063950D01*
X0165060Y0063950D01*
X0165060Y0068665D01*
X0164737Y0069444D01*
X0165060Y0070224D01*
X0165060Y0076539D01*
X0164737Y0077318D01*
X0165060Y0078098D01*
X0165060Y0084413D01*
X0164737Y0085193D01*
X0165060Y0085972D01*
X0165060Y0092287D01*
X0164737Y0093067D01*
X0165060Y0093846D01*
X0165060Y0100161D01*
X0164451Y0101632D01*
X0163660Y0102423D01*
X0163660Y0104877D01*
X0157123Y0104877D01*
X0157123Y0104878D01*
X0157123Y0104878D01*
X0157123Y0112751D01*
X0157123Y0112751D01*
X0157123Y0112752D01*
X0157123Y0112752D01*
X0157123Y0117714D01*
X0161316Y0117714D01*
X0161818Y0117614D01*
X0162291Y0117418D01*
X0162717Y0117133D01*
X0163079Y0116771D01*
X0163364Y0116345D01*
X0163560Y0115872D01*
X0163660Y0115370D01*
X0163660Y0112752D01*
X0157123Y0112752D01*
X0157123Y0117714D01*
X0153695Y0117714D01*
X0153695Y0139063D01*
X0152766Y0141305D01*
X0149016Y0145055D01*
X0147301Y0146771D01*
X0145059Y0147700D01*
X0130132Y0147700D01*
X0127890Y0146771D01*
X0124140Y0143021D01*
X0122424Y0141305D01*
X0121701Y0139560D01*
X0121123Y0139799D01*
X0114382Y0139799D01*
X0113695Y0139514D01*
X0113695Y0146563D01*
X0112766Y0148805D01*
X0109822Y0151750D01*
X0111590Y0149982D02*
X0112747Y0149982D01*
X0113604Y0146783D02*
X0127918Y0146783D01*
X0124703Y0143584D02*
X0113695Y0143584D01*
X0113695Y0140386D02*
X0122043Y0140386D01*
X0123855Y0123519D02*
X0123855Y0123519D01*
X0123855Y0118163D01*
X0123695Y0118163D01*
X0123695Y0110377D01*
X0125095Y0108977D01*
X0125235Y0109117D01*
X0125235Y0118163D01*
X0123855Y0118163D01*
X0123855Y0123519D01*
X0123855Y0121195D02*
X0123855Y0121195D01*
X0123695Y0117996D02*
X0125235Y0117996D01*
X0125235Y0114798D02*
X0123695Y0114798D01*
X0123695Y0111599D02*
X0125235Y0111599D01*
X0153695Y0117996D02*
X0169105Y0117996D01*
X0169105Y0121195D02*
X0153695Y0121195D01*
X0153695Y0124393D02*
X0157042Y0124393D01*
X0157042Y0127592D02*
X0153695Y0127592D01*
X0153695Y0130790D02*
X0155642Y0130790D01*
X0155642Y0133989D02*
X0153695Y0133989D01*
X0153695Y0137187D02*
X0155699Y0137187D01*
X0153147Y0140386D02*
X0169094Y0140386D01*
X0168720Y0143584D02*
X0150487Y0143584D01*
X0147272Y0146783D02*
X0169061Y0146783D01*
X0167425Y0149982D02*
X0163353Y0149982D01*
X0166940Y0153180D02*
X0167312Y0153180D01*
X0162595Y0124393D02*
X0162595Y0124393D01*
X0163660Y0114798D02*
X0167875Y0114798D01*
X0167312Y0111599D02*
X0163660Y0111599D01*
X0163660Y0112751D02*
X0157123Y0112751D01*
X0157123Y0109840D01*
X0157123Y0104878D01*
X0163660Y0104878D01*
X0163660Y0107496D01*
X0163560Y0107998D01*
X0163364Y0108471D01*
X0163134Y0108815D01*
X0163364Y0109158D01*
X0163560Y0109631D01*
X0163660Y0110133D01*
X0163660Y0112751D01*
X0163393Y0108401D02*
X0168080Y0108401D01*
X0168043Y0105202D02*
X0163660Y0105202D01*
X0164078Y0102004D02*
X0167312Y0102004D01*
X0167912Y0098805D02*
X0165060Y0098805D01*
X0165060Y0095607D02*
X0170237Y0095607D01*
X0165010Y0092408D02*
X0176495Y0092408D01*
X0176495Y0089210D02*
X0165060Y0089210D01*
X0165060Y0086011D02*
X0176495Y0086011D01*
X0176495Y0082813D02*
X0165060Y0082813D01*
X0165060Y0079614D02*
X0176495Y0079614D01*
X0176495Y0076416D02*
X0165060Y0076416D01*
X0165060Y0073217D02*
X0176495Y0073217D01*
X0176137Y0070019D02*
X0164975Y0070019D01*
X0165060Y0066820D02*
X0172939Y0066820D01*
X0191001Y0047629D02*
X0196933Y0047629D01*
X0197124Y0047550D02*
X0208067Y0047550D01*
X0210970Y0048753D01*
X0211680Y0049462D01*
X0213651Y0050279D01*
X0217301Y0053929D01*
X0217345Y0053973D01*
X0217345Y0047850D01*
X0217219Y0044633D01*
X0217219Y0044633D01*
X0216212Y0038279D01*
X0215812Y0037047D01*
X0215812Y0037877D01*
X0214442Y0041185D01*
X0211910Y0043716D01*
X0208602Y0045087D01*
X0205022Y0045087D01*
X0201714Y0043716D01*
X0199182Y0041185D01*
X0197812Y0037877D01*
X0197812Y0034296D01*
X0199182Y0030988D01*
X0201714Y0028457D01*
X0205022Y0027087D01*
X0208602Y0027087D01*
X0211910Y0028457D01*
X0212781Y0029328D01*
X0211303Y0026428D01*
X0207522Y0021223D01*
X0202973Y0016673D01*
X0197768Y0012892D01*
X0192035Y0009971D01*
X0185916Y0007983D01*
X0179562Y0006976D01*
X0176345Y0006850D01*
X0097595Y0006850D01*
X0094378Y0006976D01*
X0088024Y0007983D01*
X0083531Y0009443D01*
X0084519Y0009443D01*
X0085507Y0009573D01*
X0086469Y0009830D01*
X0087389Y0010212D01*
X0088252Y0010710D01*
X0089042Y0011316D01*
X0089395Y0011668D01*
X0084021Y0017042D01*
X0084021Y0017042D01*
X0089395Y0011669D01*
X0089747Y0012021D01*
X0090353Y0012811D01*
X0090852Y0013674D01*
X0090868Y0013713D01*
X0091314Y0012635D01*
X0092440Y0011510D01*
X0093910Y0010901D01*
X0100651Y0010901D01*
X0102121Y0011510D01*
X0102975Y0012364D01*
X0104030Y0011309D01*
X0105500Y0010700D01*
X0112210Y0010700D01*
X0112595Y0010860D01*
X0112981Y0010700D01*
X0119690Y0010700D01*
X0121160Y0011309D01*
X0121601Y0011750D01*
X0134180Y0011750D01*
X0134424Y0011506D01*
X0135894Y0010897D01*
X0142603Y0010897D01*
X0144074Y0011506D01*
X0144865Y0012297D01*
X0145942Y0012297D01*
X0148757Y0012297D01*
X0149259Y0012397D01*
X0149732Y0012593D01*
X0150158Y0012878D01*
X0150520Y0013240D01*
X0150805Y0013666D01*
X0151001Y0014139D01*
X0151101Y0014641D01*
X0151101Y0017850D01*
X0151101Y0020169D01*
X0152735Y0020169D01*
X0152735Y0017476D01*
X0157910Y0017476D01*
X0157910Y0017476D01*
X0152735Y0017476D01*
X0152735Y0014645D01*
X0152835Y0014143D01*
X0153031Y0013670D01*
X0153316Y0013244D01*
X0153678Y0012882D01*
X0154104Y0012597D01*
X0154577Y0012401D01*
X0155079Y0012301D01*
X0157910Y0012301D01*
X0157910Y0017476D01*
X0157910Y0017476D01*
X0157910Y0012301D01*
X0160741Y0012301D01*
X0161243Y0012401D01*
X0161716Y0012597D01*
X0162142Y0012882D01*
X0162504Y0013244D01*
X0162789Y0013670D01*
X0162985Y0014143D01*
X0163085Y0014645D01*
X0163085Y0017476D01*
X0163085Y0020307D01*
X0162985Y0020809D01*
X0162789Y0021282D01*
X0162504Y0021708D01*
X0162396Y0021817D01*
X0162482Y0021903D01*
X0163091Y0023373D01*
X0163091Y0028869D01*
X0169196Y0022763D01*
X0171402Y0021850D01*
X0173789Y0021850D01*
X0175994Y0022763D01*
X0177682Y0024451D01*
X0178595Y0026657D01*
X0178595Y0029043D01*
X0177682Y0031249D01*
X0176871Y0032059D01*
X0177246Y0032435D01*
X0177855Y0033905D01*
X0177855Y0040500D01*
X0178735Y0040500D01*
X0178735Y0037850D01*
X0178735Y0034444D01*
X0178835Y0033942D01*
X0179031Y0033469D01*
X0179316Y0033043D01*
X0179678Y0032681D01*
X0180104Y0032396D01*
X0180577Y0032200D01*
X0181079Y0032100D01*
X0188225Y0032100D01*
X0188225Y0037850D01*
X0188225Y0037850D01*
X0178735Y0037850D01*
X0188225Y0037850D01*
X0188225Y0043600D01*
X0186971Y0043600D01*
X0192722Y0049350D01*
X0193623Y0049350D01*
X0194220Y0048753D01*
X0197124Y0047550D01*
X0195873Y0043500D02*
X0195371Y0043600D01*
X0188225Y0043600D01*
X0188225Y0037850D01*
X0188225Y0037850D01*
X0188225Y0037850D01*
X0197715Y0037850D01*
X0197715Y0041256D01*
X0197615Y0041758D01*
X0197419Y0042231D01*
X0197134Y0042657D01*
X0196772Y0043019D01*
X0196346Y0043304D01*
X0195873Y0043500D01*
X0197715Y0041232D02*
X0199230Y0041232D01*
X0197877Y0038034D02*
X0197715Y0038034D01*
X0197715Y0037850D02*
X0188225Y0037850D01*
X0188225Y0037850D01*
X0188225Y0032100D01*
X0195371Y0032100D01*
X0195873Y0032200D01*
X0196346Y0032396D01*
X0196772Y0032681D01*
X0197134Y0033043D01*
X0197419Y0033469D01*
X0197615Y0033942D01*
X0197715Y0034444D01*
X0197715Y0037850D01*
X0197715Y0034835D02*
X0197812Y0034835D01*
X0198914Y0031637D02*
X0177294Y0031637D01*
X0177855Y0034835D02*
X0178735Y0034835D01*
X0178735Y0038034D02*
X0177855Y0038034D01*
X0178595Y0028438D02*
X0201759Y0028438D01*
X0208116Y0022041D02*
X0195154Y0022041D01*
X0195050Y0022223D02*
X0194443Y0023013D01*
X0194091Y0023365D01*
X0188717Y0017991D01*
X0188717Y0017991D01*
X0194091Y0012617D01*
X0193739Y0012265D01*
X0192948Y0011659D01*
X0192085Y0011160D01*
X0191165Y0010779D01*
X0190203Y0010521D01*
X0189215Y0010391D01*
X0188219Y0010391D01*
X0187231Y0010521D01*
X0186269Y0010779D01*
X0185348Y0011160D01*
X0184485Y0011659D01*
X0183695Y0012265D01*
X0183343Y0012617D01*
X0188717Y0017991D01*
X0194091Y0012617D01*
X0194443Y0012970D01*
X0195050Y0013760D01*
X0195548Y0014623D01*
X0195929Y0015543D01*
X0196187Y0016505D01*
X0196317Y0017493D01*
X0196317Y0018489D01*
X0196187Y0019477D01*
X0195929Y0020440D01*
X0195548Y0021360D01*
X0195050Y0022223D01*
X0194091Y0023365D02*
X0193739Y0023718D01*
X0192948Y0024324D01*
X0192085Y0024822D01*
X0191165Y0025203D01*
X0190203Y0025461D01*
X0189215Y0025591D01*
X0188219Y0025591D01*
X0187231Y0025461D01*
X0186269Y0025203D01*
X0185348Y0024822D01*
X0184485Y0024324D01*
X0183695Y0023718D01*
X0183343Y0023365D01*
X0182991Y0023013D01*
X0182384Y0022223D01*
X0181886Y0021360D01*
X0181505Y0020440D01*
X0181247Y0019477D01*
X0181117Y0018489D01*
X0181117Y0017493D01*
X0181247Y0016505D01*
X0181505Y0015543D01*
X0181886Y0014623D01*
X0182384Y0013760D01*
X0182991Y0012970D01*
X0183343Y0012617D01*
X0188717Y0017991D01*
X0188717Y0017991D01*
X0188717Y0017991D01*
X0194091Y0023365D01*
X0192767Y0022041D02*
X0192766Y0022041D01*
X0191030Y0025240D02*
X0210440Y0025240D01*
X0211865Y0028438D02*
X0212328Y0028438D01*
X0215747Y0038034D02*
X0216133Y0038034D01*
X0216680Y0041232D02*
X0214394Y0041232D01*
X0217187Y0044431D02*
X0210186Y0044431D01*
X0208258Y0047629D02*
X0217336Y0047629D01*
X0217345Y0050828D02*
X0214200Y0050828D01*
X0203438Y0044431D02*
X0187802Y0044431D01*
X0188225Y0041232D02*
X0188225Y0041232D01*
X0188225Y0038034D02*
X0188225Y0038034D01*
X0188225Y0034835D02*
X0188225Y0034835D01*
X0186404Y0025240D02*
X0178008Y0025240D01*
X0174250Y0022041D02*
X0182279Y0022041D01*
X0183343Y0023365D02*
X0188717Y0017991D01*
X0188717Y0017991D01*
X0183343Y0023365D01*
X0184667Y0022041D02*
X0184667Y0022041D01*
X0187865Y0018843D02*
X0187866Y0018843D01*
X0189568Y0018843D02*
X0189568Y0018843D01*
X0191064Y0015644D02*
X0191064Y0015644D01*
X0193919Y0012446D02*
X0196892Y0012446D01*
X0195956Y0015644D02*
X0201556Y0015644D01*
X0205142Y0018843D02*
X0196270Y0018843D01*
X0189807Y0009247D02*
X0084133Y0009247D01*
X0088618Y0012446D02*
X0088618Y0012446D01*
X0090073Y0012446D02*
X0091504Y0012446D01*
X0085821Y0018843D02*
X0085821Y0018843D01*
X0084021Y0017043D02*
X0089395Y0022417D01*
X0089042Y0022769D01*
X0088252Y0023375D01*
X0087389Y0023873D01*
X0086469Y0024255D01*
X0085507Y0024512D01*
X0084519Y0024642D01*
X0083523Y0024642D01*
X0082535Y0024512D01*
X0081573Y0024255D01*
X0080652Y0023873D01*
X0079789Y0023375D01*
X0078999Y0022769D01*
X0078647Y0022417D01*
X0084021Y0017043D01*
X0084021Y0017043D01*
X0089395Y0022416D01*
X0089747Y0022064D01*
X0090353Y0021274D01*
X0090705Y0020664D01*
X0090705Y0020846D01*
X0091314Y0022317D01*
X0092179Y0023181D01*
X0092099Y0023373D01*
X0092099Y0051533D01*
X0089098Y0051533D01*
X0086856Y0052462D01*
X0085140Y0054178D01*
X0085068Y0054250D01*
X0083472Y0054250D01*
X0084395Y0052021D01*
X0084395Y0048879D01*
X0083192Y0045975D01*
X0080970Y0043753D01*
X0078067Y0042550D01*
X0071241Y0042550D01*
X0073555Y0040236D01*
X0074925Y0036928D01*
X0074925Y0033348D01*
X0073555Y0030040D01*
X0071024Y0027508D01*
X0067716Y0026138D01*
X0064135Y0026138D01*
X0062423Y0026847D01*
X0062637Y0026428D01*
X0066418Y0021223D01*
X0070968Y0016673D01*
X0076173Y0012892D01*
X0078723Y0011592D01*
X0078647Y0011668D01*
X0084021Y0017042D01*
X0084021Y0017042D01*
X0078647Y0011669D01*
X0078294Y0012021D01*
X0077688Y0012811D01*
X0077190Y0013674D01*
X0076809Y0014594D01*
X0076551Y0015557D01*
X0076421Y0016544D01*
X0076421Y0017541D01*
X0076551Y0018528D01*
X0076809Y0019491D01*
X0077190Y0020411D01*
X0077688Y0021274D01*
X0078294Y0022064D01*
X0078647Y0022416D01*
X0084021Y0017043D01*
X0084021Y0017043D01*
X0085419Y0015644D02*
X0085419Y0015644D01*
X0082622Y0015644D02*
X0082622Y0015644D01*
X0082221Y0018843D02*
X0082221Y0018843D01*
X0079022Y0022041D02*
X0079022Y0022041D01*
X0078277Y0022041D02*
X0065824Y0022041D01*
X0063500Y0025240D02*
X0092099Y0025240D01*
X0092099Y0028438D02*
X0071954Y0028438D01*
X0074217Y0031637D02*
X0092099Y0031637D01*
X0092099Y0034835D02*
X0074925Y0034835D01*
X0074467Y0038034D02*
X0092099Y0038034D01*
X0092099Y0041232D02*
X0072559Y0041232D01*
X0081648Y0044431D02*
X0092099Y0044431D01*
X0092099Y0047629D02*
X0083878Y0047629D01*
X0084395Y0050828D02*
X0092099Y0050828D01*
X0085292Y0054026D02*
X0083565Y0054026D01*
X0089019Y0022041D02*
X0089019Y0022041D01*
X0089765Y0022041D02*
X0091200Y0022041D01*
X0079424Y0012446D02*
X0079424Y0012446D01*
X0077969Y0012446D02*
X0077048Y0012446D01*
X0076539Y0015644D02*
X0072384Y0015644D01*
X0068799Y0018843D02*
X0076635Y0018843D01*
X0145942Y0017850D02*
X0145942Y0012297D01*
X0145942Y0017850D01*
X0151101Y0017850D01*
X0145942Y0017850D01*
X0145942Y0017850D01*
X0145942Y0017850D01*
X0145942Y0015644D02*
X0145942Y0015644D01*
X0145942Y0012446D02*
X0145942Y0012446D01*
X0149376Y0012446D02*
X0154470Y0012446D01*
X0152735Y0015644D02*
X0151101Y0015644D01*
X0151101Y0018843D02*
X0152735Y0018843D01*
X0157910Y0017476D02*
X0163085Y0017476D01*
X0157910Y0017476D01*
X0157910Y0017476D01*
X0157910Y0015644D02*
X0157910Y0015644D01*
X0157910Y0012446D02*
X0157910Y0012446D01*
X0161351Y0012446D02*
X0183515Y0012446D01*
X0181478Y0015644D02*
X0163085Y0015644D01*
X0163085Y0018843D02*
X0181163Y0018843D01*
X0186369Y0015644D02*
X0186370Y0015644D01*
X0170940Y0022041D02*
X0162539Y0022041D01*
X0163091Y0025240D02*
X0166720Y0025240D01*
X0163522Y0028438D02*
X0163091Y0028438D01*
X0157123Y0105202D02*
X0157123Y0105202D01*
X0157123Y0108401D02*
X0157123Y0108401D01*
X0157123Y0111599D02*
X0157123Y0111599D01*
X0157123Y0114798D02*
X0157123Y0114798D01*
D28*
X0132595Y0072850D03*
X0172595Y0027850D03*
X0192595Y0046600D03*
D29*
X0192595Y0036600D01*
X0188717Y0017991D02*
X0188225Y0017991D01*
X0172595Y0027850D02*
X0166965Y0033480D01*
X0132595Y0072850D02*
X0132595Y0082850D01*
X0117595Y0097850D01*
X0107595Y0097850D01*
X0106749Y0097004D01*
X0098068Y0097004D01*
M02*
